<?xml version="1.0" encoding="UTF-8"?>
<svg version="1.1" xmlns="http://www.w3.org/2000/svg" width="811" height="60">
<path d="M0 0 C14.52 0 29.04 0 44 0 C44 3.96 44 7.92 44 12 C32.45 12 20.9 12 9 12 C9 15.63 9 19.26 9 23 C20.55 23 32.1 23 44 23 C44 27.29 44 31.58 44 36 C32.45 36 20.9 36 9 36 C9 39.63 9 43.26 9 47 C20.55 47 32.1 47 44 47 C44 51.29 44 55.58 44 60 C29.48 60 14.96 60 0 60 C0 40.2 0 20.4 0 0 Z " fill="#B64A97" transform="translate(650,0)"/>
<path d="M0 0 C14.52 0 29.04 0 44 0 C44 3.96 44 7.92 44 12 C32.45 12 20.9 12 9 12 C9 15.63 9 19.26 9 23 C20.55 23 32.1 23 44 23 C44 27.29 44 31.58 44 36 C32.45 36 20.9 36 9 36 C9 39.63 9 43.26 9 47 C20.55 47 32.1 47 44 47 C44 51.29 44 55.58 44 60 C29.48 60 14.96 60 0 60 C0 40.2 0 20.4 0 0 Z " fill="#9152A4" transform="translate(472,0)"/>
<path d="M0 0 C14.52 0 29.04 0 44 0 C45.20248512 27.0559153 45.20248512 27.0559153 39.57421875 34.171875 C31.79946261 39.5108928 17.86976226 36.71827394 9 36 C9 39.63 9 43.26 9 47 C20.55 47 32.1 47 44 47 C44 51.29 44 55.58 44 60 C29.48 60 14.96 60 0 60 C-1.18538802 30.80981997 -1.18538802 30.80981997 4.4921875 24.53515625 C13.44016309 20.61917139 24.48418776 22.3193169 34 23 C34 19.37 34 15.74 34 12 C22.78 12 11.56 12 0 12 C0 8.04 0 4.08 0 0 Z " fill="#8553A8" transform="translate(413,0)"/>
<path d="M0 0 C1.93262695 0.05124023 1.93262695 0.05124023 3.90429688 0.10351562 C5.18884766 0.05646484 6.47339844 0.00941406 7.796875 -0.0390625 C12.85113177 -0.00000333 16.7944059 0.38042789 21.14111328 3.07202148 C29.67815669 12.17914653 27.3158015 26.06413861 26.96679688 37.60351562 C26.92661734 39.91400079 26.89012449 42.22455317 26.85742188 44.53515625 C26.76978588 50.16378421 26.63202183 55.78915254 26.46679688 61.41601562 C23.16679687 61.41601562 19.86679688 61.41601562 16.46679688 61.41601562 C16.46679688 53.49601562 16.46679688 45.57601562 16.46679688 37.41601562 C8.21679688 37.41601562 -0.03320312 37.41601562 -8.53320312 37.41601562 C-8.53320312 45.33601563 -8.53320312 53.25601563 -8.53320312 61.41601562 C-11.50320312 61.41601562 -14.47320312 61.41601562 -17.53320312 61.41601562 C-17.70711928 54.47848108 -17.83368578 47.54223379 -17.91772461 40.60302734 C-17.95278068 38.24603146 -18.00044068 35.88918619 -18.0612793 33.53271484 C-18.14685006 30.13145678 -18.18604171 26.73222164 -18.21679688 23.33007812 C-18.25292587 22.28800201 -18.28905487 21.2459259 -18.32627869 20.17227173 C-18.32994884 13.2287001 -16.81211017 8.79911353 -12.48570251 3.31445312 C-8.6722163 -0.39344316 -5.0358217 0.07012232 0 0 Z M-8.53320312 13.41601562 C-8.53320312 17.04601563 -8.53320312 20.67601563 -8.53320312 24.41601562 C-0.28320312 24.41601562 7.96679688 24.41601562 16.46679688 24.41601562 C16.46679688 20.78601562 16.46679688 17.15601562 16.46679688 13.41601562 C8.21679688 13.41601562 -0.03320312 13.41601562 -8.53320312 13.41601562 Z " fill="#4F53B8" transform="translate(194.533203125,-1.416015625)"/>
<path d="M0 0 C1.93262695 0.05124023 1.93262695 0.05124023 3.90429688 0.10351562 C5.18884766 0.05646484 6.47339844 0.00941406 7.796875 -0.0390625 C12.85113177 -0.00000333 16.7944059 0.38042789 21.14111328 3.07202148 C29.67815669 12.17914653 27.3158015 26.06413861 26.96679688 37.60351562 C26.92661734 39.91400079 26.89012449 42.22455317 26.85742188 44.53515625 C26.76978588 50.16378421 26.63202183 55.78915254 26.46679688 61.41601562 C23.16679688 61.41601562 19.86679688 61.41601562 16.46679688 61.41601562 C16.46679688 53.49601562 16.46679688 45.57601562 16.46679688 37.41601562 C8.21679688 37.41601562 -0.03320312 37.41601562 -8.53320312 37.41601562 C-8.53320312 45.33601563 -8.53320312 53.25601563 -8.53320312 61.41601562 C-11.50320312 61.41601562 -14.47320312 61.41601562 -17.53320312 61.41601562 C-17.70711928 54.47848108 -17.83368578 47.54223379 -17.91772461 40.60302734 C-17.95278068 38.24603146 -18.00044068 35.88918619 -18.0612793 33.53271484 C-18.14685006 30.13145678 -18.18604171 26.73222164 -18.21679688 23.33007812 C-18.25292587 22.28800201 -18.28905487 21.2459259 -18.32627869 20.17227173 C-18.32994884 13.2287001 -16.81211017 8.79911353 -12.48570251 3.31445312 C-8.6722163 -0.39344316 -5.0358217 0.07012232 0 0 Z M-8.53320312 13.41601562 C-8.53320312 17.04601563 -8.53320312 20.67601563 -8.53320312 24.41601562 C-0.28320312 24.41601562 7.96679688 24.41601562 16.46679688 24.41601562 C16.46679688 20.78601562 16.46679688 17.15601562 16.46679688 13.41601562 C8.21679688 13.41601562 -0.03320312 13.41601562 -8.53320312 13.41601562 Z " fill="#2C51BF" transform="translate(76.533203125,-1.416015625)"/>
<path d="M0 0 C8.6625 -0.3403125 8.6625 -0.3403125 17.5 -0.6875 C19.30662109 -0.78764404 21.11324219 -0.88778809 22.97460938 -0.9909668 C28.76055587 -1.18654353 33.89926646 -1.322488 38.90625 1.82958984 C45.29930081 9.21156571 45.22966768 18.18343697 45.04296875 27.4609375 C45.00002242 29.99867502 45.04268789 32.52510578 45.09375 35.0625 C45.13429008 43.59038865 44.74211326 51.43181179 38.90625 58.17041016 C32.47087983 62.22170922 24.81536176 61.09300279 17.5 60.6875 C11.725 60.460625 5.95 60.23375 0 60 C0 40.2 0 20.4 0 0 Z M9 12 C9 23.55 9 35.1 9 47 C17.25 47 25.5 47 34 47 C34 35.45 34 23.9 34 12 C25.75 12 17.5 12 9 12 Z " fill="#9E50A0" transform="translate(531,0)"/>
<path d="M0 0 C8.6625 -0.3403125 8.6625 -0.3403125 17.5 -0.6875 C19.30662109 -0.78764404 21.11324219 -0.88778809 22.97460938 -0.9909668 C34.26349622 -1.35708121 34.26349622 -1.35708121 38.90625 2.27124023 C43.32568196 8.068292 45.27326119 13.36298042 44.78125 20.69921875 C43.37354005 26.64679328 40.56999508 31.90957231 36 36 C33.25942107 36.72270465 30.85941268 36.86784227 28 37 C28.37809814 37.51908936 28.75619629 38.03817871 29.14575195 38.57299805 C30.87014471 40.94294762 32.59134599 43.3151974 34.3125 45.6875 C35.20485352 46.91243164 35.20485352 46.91243164 36.11523438 48.16210938 C38.91257738 52.02213017 41.65403785 55.84163388 44 60 C40.39842209 60.89656301 37.58664009 61.03244346 34 60 C29.13748687 55.32423036 25.64827913 49.64672336 22.09765625 43.9453125 C21.52917969 43.05585937 20.96070313 42.16640625 20.375 41.25 C19.67503906 40.05117187 19.67503906 40.05117187 18.9609375 38.828125 C16.46052244 36.13914175 16.46052244 36.13914175 9 36 C9 43.92 9 51.84 9 60 C6.03 60 3.06 60 0 60 C0 40.2 0 20.4 0 0 Z M9 12 C9 15.63 9 19.26 9 23 C17.25 23 25.5 23 34 23 C34 19.37 34 15.74 34 12 C25.75 12 17.5 12 9 12 Z " fill="#3E52BC" transform="translate(118,0)"/>
<path d="M0 0 C1.93939453 -0.04543945 1.93939453 -0.04543945 3.91796875 -0.09179688 C9.74615965 -0.01692289 14.58968089 0.19915994 18.8515625 4.484375 C23.18066407 11.41987057 22.53932723 19.93451952 22.41259766 27.83422852 C22.37511023 30.61681762 22.41229348 33.39148304 22.45703125 36.17382812 C22.51824449 53.14265253 22.51824449 53.14265253 16.8984375 59.59155273 C11.84264001 62.9557372 6.44612317 62.66199066 0.5625 62.5 C-1.2927832 62.57057617 -1.2927832 62.57057617 -3.18554688 62.64257812 C-8.21676311 62.60224235 -11.95448512 62.27781817 -16.12768555 59.33374023 C-22.82942544 51.67535514 -22.69908203 42.89538753 -22.48803711 33.24438477 C-22.43748035 30.62398166 -22.46734146 28.013023 -22.50585938 25.39257812 C-22.51683486 17.22045867 -22.51579508 9.32177364 -16.93188477 2.81420898 C-11.74568185 -0.65488749 -6.02827566 -0.20134321 0 0 Z M-12.5 13.1875 C-12.5 24.7375 -12.5 36.2875 -12.5 48.1875 C-4.25 48.1875 4 48.1875 12.5 48.1875 C12.5 36.6375 12.5 25.0875 12.5 13.1875 C4.25 13.1875 -4 13.1875 -12.5 13.1875 Z " fill="#CA4190" transform="translate(789.5,-1.1875)"/>
<path d="M0 0 C8.6625 -0.3403125 8.6625 -0.3403125 17.5 -0.6875 C19.30662109 -0.78764404 21.11324219 -0.88778809 22.97460938 -0.9909668 C34.26349622 -1.35708121 34.26349622 -1.35708121 38.90625 2.27124023 C43.30724637 8.04410969 45.36526497 13.37575357 44.70703125 20.6953125 C42.40668581 31.44720332 42.40668581 31.44720332 38.06396484 35.03173828 C29.78532322 38.91547293 17.8174305 36.66130729 9 36 C9 43.92 9 51.84 9 60 C6.03 60 3.06 60 0 60 C0 40.2 0 20.4 0 0 Z M9 12 C9 15.63 9 19.26 9 23 C17.25 23 25.5 23 34 23 C34 19.37 34 15.74 34 12 C25.75 12 17.5 12 9 12 Z " fill="#124FC2" transform="translate(0,0)"/>
<path d="M0 0 C14.52 0 29.04 0 44 0 C44 3.96 44 7.92 44 12 C38.06 12 32.12 12 26 12 C26 23.55 26 35.1 26 47 C31.94 47 37.88 47 44 47 C44 51.29 44 55.58 44 60 C29.48 60 14.96 60 0 60 C0 55.71 0 51.42 0 47 C5.61 47 11.22 47 17 47 C17 35.45 17 23.9 17 12 C11.39 12 5.78 12 0 12 C0 8.04 0 4.08 0 0 Z " fill="#6C55B0" transform="translate(295,0)"/>
<path d="M0 0 C2.97 0 5.94 0 9 0 C8.96745117 0.88558594 8.93490234 1.77117188 8.90136719 2.68359375 C7.82161326 24.87401707 7.82161326 24.87401707 17.78222656 43.93359375 C19.13649819 45.34067141 20.56066304 46.68006505 22 48 C29.48518416 41.30402801 33.31706726 34.84159711 33.953125 24.65625 C34.34199743 16.44506554 34.24355605 8.21408947 34 0 C37.3 0 40.6 0 44 0 C46.28297898 37.67500699 46.28297898 37.67500699 38.3125 46.875 C36.76979857 48.50690206 35.201792 50.03911926 33.51782227 51.52441406 C31.84952919 53.14628367 30.68879272 54.84163891 29.421875 56.7890625 C27.80883588 59.12371587 27.11680703 59.9394744 24.52734375 61.28125 C21.05790722 61.57429441 19.22853694 61.4284831 16 60 C11.68603575 55.71216516 8.51356156 50.42058212 5.38110352 45.24169922 C3.96792254 42.85338916 3.96792254 42.85338916 1.86010742 40.2734375 C-0.52733144 36.07199634 -0.51620815 33.05504221 -0.390625 28.3203125 C-0.38496521 27.50754852 -0.37930542 26.69478455 -0.37347412 25.85739136 C-0.35120838 23.27931055 -0.30103315 20.70265569 -0.25 18.125 C-0.2299222 16.36981184 -0.21167367 14.61460174 -0.1953125 12.859375 C-0.15137612 8.57237311 -0.08241911 4.28642773 0 0 Z " fill="#C14593" transform="translate(709,0)"/>
<path d="M0 0 C2.97 0 5.94 0 9 0 C9 7.59 9 15.18 9 23 C17.25 23 25.5 23 34 23 C34 15.41 34 7.82 34 0 C37.3 0 40.6 0 44 0 C45.43378692 24.61334218 45.43378692 24.61334218 38.7265625 34.21875 C36 36 36 36 26 36 C26 43.92 26 51.84 26 60 C23.03 60 20.06 60 17 60 C17 52.08 17 44.16 17 36 C14.03 36 11.06 36 8 36 C3.73343667 33.52120912 1.32993478 29.70295776 0 25 C-0.94626958 16.70550467 -0.49782436 8.31462413 0 0 Z " fill="#7954AC" transform="translate(354,0)"/>
<path d="M0 0 C2.97 0 5.94 0 9 0 C9 15.51 9 31.02 9 47 C20.55 47 32.1 47 44 47 C44 51.29 44 55.58 44 60 C29.48 60 14.96 60 0 60 C0 40.2 0 20.4 0 0 Z " fill="#5C54B4" transform="translate(236,0)"/>
<path d="M0 0 C14.52 0 29.04 0 44 0 C44 4.29 44 8.58 44 13 C29.48 13 14.96 13 0 13 C0 8.71 0 4.42 0 0 Z " fill="#AA4D9C" transform="translate(591,47)"/>
</svg>
